<?xml version="1.0" standalone="no"?>
<!DOCTYPE svg PUBLIC "-//W3C//DTD SVG 20010904//EN"
 "http://www.w3.org/TR/2001/REC-SVG-20010904/DTD/svg10.dtd">
<svg version="1.0" xmlns="http://www.w3.org/2000/svg"
 width="500.000000pt" height="500.000000pt" viewBox="0 0 500.000000 500.000000"
 preserveAspectRatio="xMidYMid meet">

<g transform="translate(0.000000,500.000000) scale(0.100000,-0.100000)"
fill="#000000" stroke="none">
<path d="M2186 3878 c-48 -13 -119 -82 -135 -131 l-12 -36 -202 -3 c-200 -3
-202 -3 -249 -31 -26 -15 -59 -42 -72 -60 -51 -66 -56 -100 -56 -363 l0 -244
34 0 34 0 4 248 c4 271 6 283 68 336 49 41 90 47 274 44 l170 -3 8 -33 c13
-48 84 -116 138 -131 32 -9 125 -11 331 -9 l286 3 49 30 c37 23 56 45 78 88
l29 57 176 0 c201 0 237 -10 287 -76 l29 -37 3 -259 3 -258 34 0 35 0 0 255
c0 194 -3 264 -14 289 -21 51 -76 107 -131 132 -47 22 -62 24 -242 24 -173 0
-193 2 -193 17 0 35 -51 103 -98 130 l-47 28 -290 2 c-179 1 -305 -3 -329 -9z
m630 -84 c48 -36 66 -67 66 -119 0 -52 -18 -83 -66 -119 -26 -20 -43 -21 -302
-24 -256 -3 -277 -2 -319 17 -36 16 -50 29 -65 63 -25 54 -25 79 -1 126 19 37
47 61 86 74 11 3 145 6 297 5 262 -2 278 -3 304 -23z"/>
<path d="M1780 3090 l0 -80 35 0 c35 0 35 0 35 45 l0 45 55 0 55 0 0 35 0 35
-90 0 -90 0 0 -80z"/>
<path d="M2055 3085 c-61 -69 -65 -75 -42 -75 21 0 34 14 71 75 25 41 44 75
42 75 -2 0 -34 -34 -71 -75z"/>
<path d="M2300 3090 l0 -40 441 0 440 0 -3 38 -3 37 -437 3 -438 2 0 -40z"/>
<path d="M1903 3035 l-28 -24 48 -1 47 0 -16 25 c-9 14 -18 25 -20 25 -1 0
-16 -11 -31 -25z"/>
<path d="M2923 2815 c-29 -20 -37 -59 -19 -94 17 -31 34 -41 72 -41 33 0 74
42 74 75 0 58 -78 95 -127 60z"/>
<path d="M2500 2495 l0 -295 60 0 60 0 0 295 0 295 -60 0 -60 0 0 -295z"/>
<path d="M4020 2495 l0 -295 60 0 60 0 0 80 0 80 33 0 c30 0 36 -6 77 -77 l45
-78 73 -3 72 -3 -61 100 -60 100 21 28 c15 21 80 174 80 191 0 1 -29 2 -64 2
l-64 0 -17 -52 c-21 -66 -54 -98 -101 -98 l-34 0 0 160 0 160 -60 0 -60 0 0
-295z"/>
<path d="M710 2761 c-55 -17 -91 -43 -110 -81 -51 -101 0 -196 126 -234 115
-34 145 -48 156 -72 8 -18 7 -29 -5 -47 -35 -53 -147 -38 -170 23 -11 29 -14
30 -71 30 l-59 0 6 -40 c11 -85 84 -140 198 -148 121 -8 205 38 228 126 12 44
0 105 -26 134 -23 26 -95 61 -158 78 -67 18 -102 36 -115 60 -16 29 3 57 48
71 50 15 108 -8 118 -45 6 -24 10 -26 69 -26 l63 0 -7 33 c-22 96 -98 148
-216 146 -27 0 -61 -4 -75 -8z"/>
<path d="M2026 2714 c-3 -9 -6 -26 -6 -39 0 -33 -26 -55 -66 -55 l-34 0 0 -50
0 -50 39 0 39 0 4 -114 c2 -97 6 -119 24 -143 30 -40 69 -57 147 -61 l67 -4 0
56 0 56 -44 0 c-63 0 -76 21 -76 127 l0 83 60 0 60 0 0 50 0 50 -60 0 -60 0 0
55 0 55 -44 0 c-31 0 -46 -5 -50 -16z"/>
<path d="M1375 2606 c-105 -48 -147 -150 -114 -271 15 -55 82 -120 139 -135
103 -28 222 11 275 88 l25 37 -60 3 c-49 2 -66 -1 -87 -18 -37 -29 -113 -28
-147 3 -13 12 -27 32 -31 45 l-6 22 170 0 170 0 -5 38 c-24 173 -176 260 -329
188z m166 -86 c10 -6 26 -24 34 -40 l16 -30 -111 0 -111 0 16 30 c8 16 23 34
32 39 23 14 99 14 124 1z"/>
<path d="M3494 2619 c-17 -5 -37 -16 -44 -24 -17 -20 -27 -19 -35 5 -5 16 -15
20 -51 20 l-44 0 0 -210 0 -210 60 0 60 0 0 121 c0 143 13 182 66 199 26 9 40
8 61 -2 45 -21 53 -51 53 -190 l0 -128 61 0 61 0 -4 158 c-3 145 -5 160 -27
196 -40 64 -129 91 -217 65z"/>
<path d="M2910 2410 l0 -210 60 0 60 0 0 210 0 210 -60 0 -60 0 0 -210z"/>
<path d="M1462 1643 c3 -334 4 -350 24 -388 28 -51 68 -91 119 -119 40 -21 43
-21 850 -24 446 -2 834 0 862 3 65 8 135 53 178 113 l30 44 3 359 3 359 -36 0
-35 0 0 -337 c0 -332 -1 -339 -23 -378 -13 -22 -40 -49 -62 -62 l-40 -23 -841
0 -841 0 -33 23 c-46 31 -71 67 -81 118 -4 24 -8 182 -9 352 l0 307 -36 0 -35
0 3 -347z"/>
<path d="M1780 1625 l0 -175 175 0 175 0 0 175 0 175 -175 0 -175 0 0 -175z
m280 5 l0 -100 -105 0 -105 0 0 100 0 100 105 0 105 0 0 -100z"/>
<path d="M2300 1720 l0 -40 441 0 440 0 -3 38 -3 37 -437 3 -438 2 0 -40z"/>
<path d="M2300 1540 l0 -40 221 0 220 0 -3 38 -3 37 -217 3 -218 2 0 -40z"/>
</g>
</svg>
